ISO-10303-21;
HEADER;
FILE_DESCRIPTION(('convert3d SLDPRT import'),'2;1');
FILE_NAME('converted','2024-01-01',(''),(''),'','convert3d','');
FILE_SCHEMA(('AUTOMOTIVE_DESIGN { 1 0 10303 214 1 1 1 1 }'));
ENDSEC;
DATA;
#1=APPLICATION_PROTOCOL_DEFINITION('international standard','automotive_design',2000,#2);
#2=APPLICATION_CONTEXT('core data for automotive mechanical design processes');
#3=SHAPE_DEFINITION_REPRESENTATION(#4,#682);
#4=PRODUCT_DEFINITION_SHAPE('','',#5);
#5=PRODUCT_DEFINITION('design','',#6,#9);
#6=PRODUCT_DEFINITION_FORMATION('','',#7);
#7=PRODUCT('Part','Part','',(#8));
#8=PRODUCT_CONTEXT('',#2,'mechanical');
#9=PRODUCT_DEFINITION_CONTEXT('part definition',#2,'design');
#20=(GEOMETRIC_REPRESENTATION_CONTEXT(2) PARAMETRIC_REPRESENTATION_CONTEXT() REPRESENTATION_CONTEXT('2D','2d'));
#21=CARTESIAN_POINT('',(0.,0.003,0.));
#22=DIRECTION('',(0.,-1.,0.));
#23=DIRECTION('',(0.,0.,-1.));
#24=AXIS2_PLACEMENT_3D('',#21,#22,#23);
#25=PLANE('',#24);
#26=CARTESIAN_POINT('',(0.00775,0.003,0.0007067551342739009));
#27=VERTEX_POINT('',#26);
#28=CARTESIAN_POINT('',(0.007750000000000001,0.003,0.005206755134273901));
#29=VERTEX_POINT('',#28);
#30=CARTESIAN_POINT('',(0.00775,0.003,0.0007067551342739009));
#31=DIRECTION('',(1.927470528863119E-16,0.,1.));
#32=VECTOR('',#31,1.);
#33=LINE('',#30,#32);
#34=EDGE_CURVE('',#27,#29,#33,.T.);
#35=ORIENTED_EDGE('',*,*,#34,.F.);
#36=CARTESIAN_POINT('',(-0.00775,0.003,0.0007067551342739564));
#37=VERTEX_POINT('',#36);
#38=CARTESIAN_POINT('',(-0.00775,0.003,0.0007067551342739564));
#39=DIRECTION('',(1.,0.,-3.581364595565021E-15));
#40=VECTOR('',#39,1.);
#41=LINE('',#38,#40);
#42=EDGE_CURVE('',#37,#27,#41,.T.);
#43=ORIENTED_EDGE('',*,*,#42,.F.);
#44=CARTESIAN_POINT('',(-0.007750000000000001,0.003,0.005206755134273956));
#45=VERTEX_POINT('',#44);
#46=CARTESIAN_POINT('',(-0.007750000000000001,0.003,0.005206755134273956));
#47=DIRECTION('',(1.927470528863119E-16,0.,-1.));
#48=VECTOR('',#47,1.);
#49=LINE('',#46,#48);
#50=EDGE_CURVE('',#45,#37,#49,.T.);
#51=ORIENTED_EDGE('',*,*,#50,.F.);
#52=CARTESIAN_POINT('',(-0.004750000000000001,0.003,0.005206755134273956));
#53=VERTEX_POINT('',#52);
#54=CARTESIAN_POINT('',(-0.004750000000000001,0.003,0.005206755134273956));
#55=DIRECTION('',(-1.,0.,0.));
#56=VECTOR('',#55,1.);
#57=LINE('',#54,#56);
#58=EDGE_CURVE('',#53,#45,#57,.T.);
#59=ORIENTED_EDGE('',*,*,#58,.F.);
#60=CARTESIAN_POINT('',(-0.004750000000000004,0.003,0.03320675513427393));
#61=VERTEX_POINT('',#60);
#62=CARTESIAN_POINT('',(-0.004750000000000004,0.003,0.03320675513427393));
#63=DIRECTION('',(1.239088197126292E-16,0.,-1.));
#64=VECTOR('',#63,1.);
#65=LINE('',#62,#64);
#66=EDGE_CURVE('',#61,#53,#65,.T.);
#67=ORIENTED_EDGE('',*,*,#66,.F.);
#68=CARTESIAN_POINT('',(0.004750000000000004,0.003,0.0332067551342739));
#69=VERTEX_POINT('',#68);
#70=CARTESIAN_POINT('',(0.004750000000000004,0.003,0.0332067551342739));
#71=DIRECTION('',(-1.,0.,2.9216395384872515E-15));
#72=VECTOR('',#71,1.);
#73=LINE('',#70,#72);
#74=EDGE_CURVE('',#69,#61,#73,.T.);
#75=ORIENTED_EDGE('',*,*,#74,.F.);
#76=CARTESIAN_POINT('',(0.004750000000000001,0.003,0.005206755134273901));
#77=VERTEX_POINT('',#76);
#78=CARTESIAN_POINT('',(0.004750000000000001,0.003,0.005206755134273901));
#79=DIRECTION('',(1.2390881971262908E-16,0.,1.));
#80=VECTOR('',#79,1.);
#81=LINE('',#78,#80);
#82=EDGE_CURVE('',#77,#69,#81,.T.);
#83=ORIENTED_EDGE('',*,*,#82,.F.);
#84=CARTESIAN_POINT('',(0.007750000000000001,0.003,0.005206755134273901));
#85=DIRECTION('',(-1.,0.,0.));
#86=VECTOR('',#85,1.);
#87=LINE('',#84,#86);
#88=EDGE_CURVE('',#29,#77,#87,.T.);
#89=ORIENTED_EDGE('',*,*,#88,.F.);
#90=EDGE_LOOP('',(#35,#43,#51,#59,#67,#75,#83,#89));
#91=FACE_OUTER_BOUND('',#90,.T.);
#92=CARTESIAN_POINT('',(-0.0015000000000000005,0.003,0.010706755134273901));
#93=VERTEX_POINT('',#92);
#94=CARTESIAN_POINT('',(0.0015000000000000005,0.003,0.010706755134273901));
#95=VERTEX_POINT('',#94);
#96=CARTESIAN_POINT('',(2.4492935982947063E-19,0.003,0.010706755134273901));
#97=DIRECTION('',(0.,1.,0.));
#98=DIRECTION('',(0.,0.,1.));
#99=AXIS2_PLACEMENT_3D('',#96,#97,#98);
#100=CIRCLE('',#99,0.0015000000000000005);
#101=EDGE_CURVE('',#93,#95,#100,.T.);
#102=ORIENTED_EDGE('',*,*,#101,.T.);
#103=CARTESIAN_POINT('',(0.0015000000000000005,0.003,0.011706755134273902));
#104=VERTEX_POINT('',#103);
#105=CARTESIAN_POINT('',(0.0015000000000000005,0.003,0.010706755134273901));
#106=DIRECTION('',(0.,0.,1.));
#107=VECTOR('',#106,1.);
#108=LINE('',#105,#107);
#109=EDGE_CURVE('',#95,#104,#108,.T.);
#110=ORIENTED_EDGE('',*,*,#109,.T.);
#111=CARTESIAN_POINT('',(-0.0014999999999999998,0.003,0.011706755134273902));
#112=VERTEX_POINT('',#111);
#113=CARTESIAN_POINT('',(3.6739403974420606E-19,0.003,0.011706755134273902));
#114=DIRECTION('',(0.,1.,0.));
#115=DIRECTION('',(0.,0.,1.));
#116=AXIS2_PLACEMENT_3D('',#113,#114,#115);
#117=CIRCLE('',#116,0.0015000000000000002);
#118=EDGE_CURVE('',#104,#112,#117,.T.);
#119=ORIENTED_EDGE('',*,*,#118,.T.);
#120=CARTESIAN_POINT('',(-0.0014999999999999998,0.003,0.011706755134273902));
#121=DIRECTION('',(-6.505213034913021E-16,0.,-1.));
#122=VECTOR('',#121,1.);
#123=LINE('',#120,#122);
#124=EDGE_CURVE('',#112,#93,#123,.T.);
#125=ORIENTED_EDGE('',*,*,#124,.T.);
#126=EDGE_LOOP('',(#102,#110,#119,#125));
#127=FACE_BOUND('',#126,.F.);
#128=CARTESIAN_POINT('',(0.,0.003,0.03070675513427391));
#129=VERTEX_POINT('',#128);
#130=CARTESIAN_POINT('',(0.,0.003,0.02920675513427391));
#131=DIRECTION('',(0.,1.,0.));
#132=DIRECTION('',(0.,0.,1.));
#133=AXIS2_PLACEMENT_3D('',#130,#131,#132);
#134=CIRCLE('',#133,0.0015000000000000005);
#135=EDGE_CURVE('',#129,#129,#134,.T.);
#136=ORIENTED_EDGE('',*,*,#135,.T.);
#137=EDGE_LOOP('',(#136));
#138=FACE_BOUND('',#137,.F.);
#139=ADVANCED_FACE('',(#91,#127,#138),#25,.F.);
#140=CARTESIAN_POINT('',(0.,0.,0.));
#141=DIRECTION('',(0.,-1.,0.));
#142=DIRECTION('',(0.,0.,-1.));
#143=AXIS2_PLACEMENT_3D('',#140,#141,#142);
#144=PLANE('',#143);
#145=CARTESIAN_POINT('',(0.0015000000000000005,0.,0.010706755134273901));
#146=VERTEX_POINT('',#145);
#147=CARTESIAN_POINT('',(0.0015000000000000002,0.,0.011706755134273902));
#148=VERTEX_POINT('',#147);
#149=CARTESIAN_POINT('',(0.0015000000000000005,0.,0.010706755134273901));
#150=DIRECTION('',(-2.168404344971007E-16,0.,1.));
#151=VECTOR('',#150,1.);
#152=LINE('',#149,#151);
#153=EDGE_CURVE('',#146,#148,#152,.T.);
#154=ORIENTED_EDGE('',*,*,#153,.F.);
#155=CARTESIAN_POINT('',(-0.0015000000000000005,0.,0.010706755134273901));
#156=VERTEX_POINT('',#155);
#157=CARTESIAN_POINT('',(2.4492935982947063E-19,0.,0.010706755134273901));
#158=DIRECTION('',(0.,1.,0.));
#159=DIRECTION('',(0.,0.,1.));
#160=AXIS2_PLACEMENT_3D('',#157,#158,#159);
#161=CIRCLE('',#160,0.0015000000000000005);
#162=EDGE_CURVE('',#156,#146,#161,.T.);
#163=ORIENTED_EDGE('',*,*,#162,.F.);
#164=CARTESIAN_POINT('',(-0.0014999999999999998,0.,0.011706755134273902));
#165=VERTEX_POINT('',#164);
#166=CARTESIAN_POINT('',(-0.0014999999999999998,0.,0.011706755134273902));
#167=DIRECTION('',(-6.505213034913021E-16,0.,-1.));
#168=VECTOR('',#167,1.);
#169=LINE('',#166,#168);
#170=EDGE_CURVE('',#165,#156,#169,.T.);
#171=ORIENTED_EDGE('',*,*,#170,.F.);
#172=CARTESIAN_POINT('',(3.6739403974420606E-19,0.,0.011706755134273902));
#173=DIRECTION('',(0.,1.,0.));
#174=DIRECTION('',(0.,0.,1.));
#175=AXIS2_PLACEMENT_3D('',#172,#173,#174);
#176=CIRCLE('',#175,0.0015000000000000002);
#177=EDGE_CURVE('',#148,#165,#176,.T.);
#178=ORIENTED_EDGE('',*,*,#177,.F.);
#179=EDGE_LOOP('',(#154,#163,#171,#178));
#180=FACE_OUTER_BOUND('',#179,.T.);
#181=CARTESIAN_POINT('',(0.00775,0.,0.0007067551342739009));
#182=VERTEX_POINT('',#181);
#183=CARTESIAN_POINT('',(0.007750000000000001,0.,0.005206755134273901));
#184=VERTEX_POINT('',#183);
#185=CARTESIAN_POINT('',(0.00775,0.,0.0007067551342739009));
#186=DIRECTION('',(1.927470528863119E-16,0.,1.));
#187=VECTOR('',#186,1.);
#188=LINE('',#185,#187);
#189=EDGE_CURVE('',#182,#184,#188,.T.);
#190=ORIENTED_EDGE('',*,*,#189,.T.);
#191=CARTESIAN_POINT('',(0.004750000000000001,0.,0.005206755134273901));
#192=VERTEX_POINT('',#191);
#193=CARTESIAN_POINT('',(0.007750000000000001,0.,0.005206755134273901));
#194=DIRECTION('',(-1.,0.,0.));
#195=VECTOR('',#194,1.);
#196=LINE('',#193,#195);
#197=EDGE_CURVE('',#184,#192,#196,.T.);
#198=ORIENTED_EDGE('',*,*,#197,.T.);
#199=CARTESIAN_POINT('',(0.004750000000000004,0.,0.0332067551342739));
#200=VERTEX_POINT('',#199);
#201=CARTESIAN_POINT('',(0.004750000000000001,0.,0.005206755134273901));
#202=DIRECTION('',(1.2390881971262908E-16,0.,1.));
#203=VECTOR('',#202,1.);
#204=LINE('',#201,#203);
#205=EDGE_CURVE('',#192,#200,#204,.T.);
#206=ORIENTED_EDGE('',*,*,#205,.T.);
#207=CARTESIAN_POINT('',(-0.004750000000000004,0.,0.03320675513427393));
#208=VERTEX_POINT('',#207);
#209=CARTESIAN_POINT('',(0.004750000000000004,0.,0.0332067551342739));
#210=DIRECTION('',(-1.,0.,2.9216395384872515E-15));
#211=VECTOR('',#210,1.);
#212=LINE('',#209,#211);
#213=EDGE_CURVE('',#200,#208,#212,.T.);
#214=ORIENTED_EDGE('',*,*,#213,.T.);
#215=CARTESIAN_POINT('',(-0.004750000000000001,0.,0.005206755134273956));
#216=VERTEX_POINT('',#215);
#217=CARTESIAN_POINT('',(-0.004750000000000004,0.,0.03320675513427393));
#218=DIRECTION('',(1.239088197126292E-16,0.,-1.));
#219=VECTOR('',#218,1.);
#220=LINE('',#217,#219);
#221=EDGE_CURVE('',#208,#216,#220,.T.);
#222=ORIENTED_EDGE('',*,*,#221,.T.);
#223=CARTESIAN_POINT('',(-0.007750000000000001,0.,0.005206755134273956));
#224=VERTEX_POINT('',#223);
#225=CARTESIAN_POINT('',(-0.004750000000000001,0.,0.005206755134273956));
#226=DIRECTION('',(-1.,0.,0.));
#227=VECTOR('',#226,1.);
#228=LINE('',#225,#227);
#229=EDGE_CURVE('',#216,#224,#228,.T.);
#230=ORIENTED_EDGE('',*,*,#229,.T.);
#231=CARTESIAN_POINT('',(-0.00775,0.,0.0007067551342739564));
#232=VERTEX_POINT('',#231);
#233=CARTESIAN_POINT('',(-0.007750000000000001,0.,0.005206755134273956));
#234=DIRECTION('',(1.927470528863119E-16,0.,-1.));
#235=VECTOR('',#234,1.);
#236=LINE('',#233,#235);
#237=EDGE_CURVE('',#224,#232,#236,.T.);
#238=ORIENTED_EDGE('',*,*,#237,.T.);
#239=CARTESIAN_POINT('',(-0.00775,0.,0.0007067551342739564));
#240=DIRECTION('',(1.,0.,-3.581364595565021E-15));
#241=VECTOR('',#240,1.);
#242=LINE('',#239,#241);
#243=EDGE_CURVE('',#232,#182,#242,.T.);
#244=ORIENTED_EDGE('',*,*,#243,.T.);
#245=EDGE_LOOP('',(#190,#198,#206,#214,#222,#230,#238,#244));
#246=FACE_BOUND('',#245,.F.);
#247=CARTESIAN_POINT('',(0.,0.,0.03070675513427391));
#248=VERTEX_POINT('',#247);
#249=CARTESIAN_POINT('',(0.,0.,0.02920675513427391));
#250=DIRECTION('',(0.,1.,0.));
#251=DIRECTION('',(0.,0.,1.));
#252=AXIS2_PLACEMENT_3D('',#249,#250,#251);
#253=CIRCLE('',#252,0.0015000000000000005);
#254=EDGE_CURVE('',#248,#248,#253,.T.);
#255=ORIENTED_EDGE('',*,*,#254,.F.);
#256=EDGE_LOOP('',(#255));
#257=FACE_BOUND('',#256,.F.);
#258=ADVANCED_FACE('',(#180,#246,#257),#144,.T.);
#259=CARTESIAN_POINT('',(0.00775,0.003,0.0007067551342739009));
#260=DIRECTION('',(-1.,0.,1.927470528863119E-16));
#261=DIRECTION('',(1.927470528863119E-16,0.,1.));
#262=AXIS2_PLACEMENT_3D('',#259,#260,#261);
#263=PLANE('',#262);
#264=CARTESIAN_POINT('',(0.00775,0.,0.0007067551342739009));
#265=DIRECTION('',(1.927470528863119E-16,0.,1.));
#266=VECTOR('',#265,1.);
#267=LINE('',#264,#266);
#268=EDGE_CURVE('',#182,#184,#267,.T.);
#269=ORIENTED_EDGE('',*,*,#268,.F.);
#270=CARTESIAN_POINT('',(0.00775,0.,0.0007067551342739009));
#271=DIRECTION('',(0.,1.,0.));
#272=VECTOR('',#271,1.);
#273=LINE('',#270,#272);
#274=EDGE_CURVE('',#182,#27,#273,.T.);
#275=ORIENTED_EDGE('',*,*,#274,.T.);
#276=CARTESIAN_POINT('',(0.00775,0.003,0.0007067551342739009));
#277=DIRECTION('',(1.927470528863119E-16,0.,1.));
#278=VECTOR('',#277,1.);
#279=LINE('',#276,#278);
#280=EDGE_CURVE('',#27,#29,#279,.T.);
#281=ORIENTED_EDGE('',*,*,#280,.T.);
#282=CARTESIAN_POINT('',(0.007750000000000001,0.,0.005206755134273901));
#283=DIRECTION('',(0.,1.,0.));
#284=VECTOR('',#283,1.);
#285=LINE('',#282,#284);
#286=EDGE_CURVE('',#184,#29,#285,.T.);
#287=ORIENTED_EDGE('',*,*,#286,.F.);
#288=EDGE_LOOP('',(#269,#275,#281,#287));
#289=FACE_OUTER_BOUND('',#288,.T.);
#290=ADVANCED_FACE('',(#289),#263,.F.);
#291=CARTESIAN_POINT('',(-0.00775,0.003,0.0007067551342739564));
#292=DIRECTION('',(3.581364595565021E-15,0.,1.));
#293=DIRECTION('',(1.,0.,-3.581364595565021E-15));
#294=AXIS2_PLACEMENT_3D('',#291,#292,#293);
#295=PLANE('',#294);
#296=CARTESIAN_POINT('',(-0.00775,0.,0.0007067551342739564));
#297=DIRECTION('',(1.,0.,-3.581364595565021E-15));
#298=VECTOR('',#297,1.);
#299=LINE('',#296,#298);
#300=EDGE_CURVE('',#232,#182,#299,.T.);
#301=ORIENTED_EDGE('',*,*,#300,.F.);
#302=CARTESIAN_POINT('',(-0.00775,0.,0.0007067551342739564));
#303=DIRECTION('',(0.,1.,0.));
#304=VECTOR('',#303,1.);
#305=LINE('',#302,#304);
#306=EDGE_CURVE('',#232,#37,#305,.T.);
#307=ORIENTED_EDGE('',*,*,#306,.T.);
#308=CARTESIAN_POINT('',(-0.00775,0.003,0.0007067551342739564));
#309=DIRECTION('',(1.,0.,-3.581364595565021E-15));
#310=VECTOR('',#309,1.);
#311=LINE('',#308,#310);
#312=EDGE_CURVE('',#37,#27,#311,.T.);
#313=ORIENTED_EDGE('',*,*,#312,.T.);
#314=CARTESIAN_POINT('',(0.00775,0.,0.0007067551342739009));
#315=DIRECTION('',(0.,1.,0.));
#316=VECTOR('',#315,1.);
#317=LINE('',#314,#316);
#318=EDGE_CURVE('',#182,#27,#317,.T.);
#319=ORIENTED_EDGE('',*,*,#318,.F.);
#320=EDGE_LOOP('',(#301,#307,#313,#319));
#321=FACE_OUTER_BOUND('',#320,.T.);
#322=ADVANCED_FACE('',(#321),#295,.F.);
#323=CARTESIAN_POINT('',(-0.00775,0.003,0.0007067551342739564));
#324=DIRECTION('',(1.,0.,1.927470528863119E-16));
#325=DIRECTION('',(1.927470528863119E-16,0.,-1.));
#326=AXIS2_PLACEMENT_3D('',#323,#324,#325);
#327=PLANE('',#326);
#328=CARTESIAN_POINT('',(-0.007750000000000001,0.,0.005206755134273956));
#329=DIRECTION('',(1.927470528863119E-16,0.,-1.));
#330=VECTOR('',#329,1.);
#331=LINE('',#328,#330);
#332=EDGE_CURVE('',#224,#232,#331,.T.);
#333=ORIENTED_EDGE('',*,*,#332,.F.);
#334=CARTESIAN_POINT('',(-0.007750000000000001,0.,0.005206755134273956));
#335=DIRECTION('',(0.,1.,0.));
#336=VECTOR('',#335,1.);
#337=LINE('',#334,#336);
#338=EDGE_CURVE('',#224,#45,#337,.T.);
#339=ORIENTED_EDGE('',*,*,#338,.T.);
#340=CARTESIAN_POINT('',(-0.007750000000000001,0.003,0.005206755134273956));
#341=DIRECTION('',(1.927470528863119E-16,0.,-1.));
#342=VECTOR('',#341,1.);
#343=LINE('',#340,#342);
#344=EDGE_CURVE('',#45,#37,#343,.T.);
#345=ORIENTED_EDGE('',*,*,#344,.T.);
#346=CARTESIAN_POINT('',(-0.00775,0.,0.0007067551342739564));
#347=DIRECTION('',(0.,1.,0.));
#348=VECTOR('',#347,1.);
#349=LINE('',#346,#348);
#350=EDGE_CURVE('',#232,#37,#349,.T.);
#351=ORIENTED_EDGE('',*,*,#350,.F.);
#352=EDGE_LOOP('',(#333,#339,#345,#351));
#353=FACE_OUTER_BOUND('',#352,.T.);
#354=ADVANCED_FACE('',(#353),#327,.F.);
#355=CARTESIAN_POINT('',(-0.007750000000000001,0.003,0.005206755134273956));
#356=DIRECTION('',(0.,0.,-1.));
#357=DIRECTION('',(-1.,0.,0.));
#358=AXIS2_PLACEMENT_3D('',#355,#356,#357);
#359=PLANE('',#358);
#360=CARTESIAN_POINT('',(-0.004750000000000001,0.,0.005206755134273956));
#361=DIRECTION('',(-1.,0.,0.));
#362=VECTOR('',#361,1.);
#363=LINE('',#360,#362);
#364=EDGE_CURVE('',#216,#224,#363,.T.);
#365=ORIENTED_EDGE('',*,*,#364,.F.);
#366=CARTESIAN_POINT('',(-0.004750000000000001,0.,0.005206755134273956));
#367=DIRECTION('',(0.,1.,0.));
#368=VECTOR('',#367,1.);
#369=LINE('',#366,#368);
#370=EDGE_CURVE('',#216,#53,#369,.T.);
#371=ORIENTED_EDGE('',*,*,#370,.T.);
#372=CARTESIAN_POINT('',(-0.004750000000000001,0.003,0.005206755134273956));
#373=DIRECTION('',(-1.,0.,0.));
#374=VECTOR('',#373,1.);
#375=LINE('',#372,#374);
#376=EDGE_CURVE('',#53,#45,#375,.T.);
#377=ORIENTED_EDGE('',*,*,#376,.T.);
#378=CARTESIAN_POINT('',(-0.007750000000000001,0.,0.005206755134273956));
#379=DIRECTION('',(0.,1.,0.));
#380=VECTOR('',#379,1.);
#381=LINE('',#378,#380);
#382=EDGE_CURVE('',#224,#45,#381,.T.);
#383=ORIENTED_EDGE('',*,*,#382,.F.);
#384=EDGE_LOOP('',(#365,#371,#377,#383));
#385=FACE_OUTER_BOUND('',#384,.T.);
#386=ADVANCED_FACE('',(#385),#359,.F.);
#387=CARTESIAN_POINT('',(-0.004750000000000001,0.003,0.005206755134273956));
#388=DIRECTION('',(1.,0.,1.239088197126292E-16));
#389=DIRECTION('',(1.239088197126292E-16,0.,-1.));
#390=AXIS2_PLACEMENT_3D('',#387,#388,#389);
#391=PLANE('',#390);
#392=CARTESIAN_POINT('',(-0.004750000000000004,0.,0.03320675513427393));
#393=DIRECTION('',(1.239088197126292E-16,0.,-1.));
#394=VECTOR('',#393,1.);
#395=LINE('',#392,#394);
#396=EDGE_CURVE('',#208,#216,#395,.T.);
#397=ORIENTED_EDGE('',*,*,#396,.F.);
#398=CARTESIAN_POINT('',(-0.004750000000000004,0.,0.03320675513427393));
#399=DIRECTION('',(0.,1.,0.));
#400=VECTOR('',#399,1.);
#401=LINE('',#398,#400);
#402=EDGE_CURVE('',#208,#61,#401,.T.);
#403=ORIENTED_EDGE('',*,*,#402,.T.);
#404=CARTESIAN_POINT('',(-0.004750000000000004,0.003,0.03320675513427393));
#405=DIRECTION('',(1.239088197126292E-16,0.,-1.));
#406=VECTOR('',#405,1.);
#407=LINE('',#404,#406);
#408=EDGE_CURVE('',#61,#53,#407,.T.);
#409=ORIENTED_EDGE('',*,*,#408,.T.);
#410=CARTESIAN_POINT('',(-0.004750000000000001,0.,0.005206755134273956));
#411=DIRECTION('',(0.,1.,0.));
#412=VECTOR('',#411,1.);
#413=LINE('',#410,#412);
#414=EDGE_CURVE('',#216,#53,#413,.T.);
#415=ORIENTED_EDGE('',*,*,#414,.F.);
#416=EDGE_LOOP('',(#397,#403,#409,#415));
#417=FACE_OUTER_BOUND('',#416,.T.);
#418=ADVANCED_FACE('',(#417),#391,.F.);
#419=CARTESIAN_POINT('',(0.004750000000000004,0.003,0.0332067551342739));
#420=DIRECTION('',(-2.921639538487251E-15,0.,-1.));
#421=DIRECTION('',(-1.,0.,2.921639538487251E-15));
#422=AXIS2_PLACEMENT_3D('',#419,#420,#421);
#423=PLANE('',#422);
#424=CARTESIAN_POINT('',(0.004750000000000004,0.,0.0332067551342739));
#425=DIRECTION('',(-1.,0.,2.9216395384872515E-15));
#426=VECTOR('',#425,1.);
#427=LINE('',#424,#426);
#428=EDGE_CURVE('',#200,#208,#427,.T.);
#429=ORIENTED_EDGE('',*,*,#428,.F.);
#430=CARTESIAN_POINT('',(0.004750000000000004,0.,0.0332067551342739));
#431=DIRECTION('',(0.,1.,0.));
#432=VECTOR('',#431,1.);
#433=LINE('',#430,#432);
#434=EDGE_CURVE('',#200,#69,#433,.T.);
#435=ORIENTED_EDGE('',*,*,#434,.T.);
#436=CARTESIAN_POINT('',(0.004750000000000004,0.003,0.0332067551342739));
#437=DIRECTION('',(-1.,0.,2.9216395384872515E-15));
#438=VECTOR('',#437,1.);
#439=LINE('',#436,#438);
#440=EDGE_CURVE('',#69,#61,#439,.T.);
#441=ORIENTED_EDGE('',*,*,#440,.T.);
#442=CARTESIAN_POINT('',(-0.004750000000000004,0.,0.03320675513427393));
#443=DIRECTION('',(0.,1.,0.));
#444=VECTOR('',#443,1.);
#445=LINE('',#442,#444);
#446=EDGE_CURVE('',#208,#61,#445,.T.);
#447=ORIENTED_EDGE('',*,*,#446,.F.);
#448=EDGE_LOOP('',(#429,#435,#441,#447));
#449=FACE_OUTER_BOUND('',#448,.T.);
#450=ADVANCED_FACE('',(#449),#423,.F.);
#451=CARTESIAN_POINT('',(0.004750000000000001,0.003,0.005206755134273901));
#452=DIRECTION('',(-1.,0.,1.2390881971262908E-16));
#453=DIRECTION('',(1.2390881971262908E-16,0.,1.));
#454=AXIS2_PLACEMENT_3D('',#451,#452,#453);
#455=PLANE('',#454);
#456=CARTESIAN_POINT('',(0.004750000000000001,0.,0.005206755134273901));
#457=DIRECTION('',(1.2390881971262908E-16,0.,1.));
#458=VECTOR('',#457,1.);
#459=LINE('',#456,#458);
#460=EDGE_CURVE('',#192,#200,#459,.T.);
#461=ORIENTED_EDGE('',*,*,#460,.F.);
#462=CARTESIAN_POINT('',(0.004750000000000001,0.,0.005206755134273901));
#463=DIRECTION('',(0.,1.,0.));
#464=VECTOR('',#463,1.);
#465=LINE('',#462,#464);
#466=EDGE_CURVE('',#192,#77,#465,.T.);
#467=ORIENTED_EDGE('',*,*,#466,.T.);
#468=CARTESIAN_POINT('',(0.004750000000000001,0.003,0.005206755134273901));
#469=DIRECTION('',(1.2390881971262908E-16,0.,1.));
#470=VECTOR('',#469,1.);
#471=LINE('',#468,#470);
#472=EDGE_CURVE('',#77,#69,#471,.T.);
#473=ORIENTED_EDGE('',*,*,#472,.T.);
#474=CARTESIAN_POINT('',(0.004750000000000004,0.,0.0332067551342739));
#475=DIRECTION('',(0.,1.,0.));
#476=VECTOR('',#475,1.);
#477=LINE('',#474,#476);
#478=EDGE_CURVE('',#200,#69,#477,.T.);
#479=ORIENTED_EDGE('',*,*,#478,.F.);
#480=EDGE_LOOP('',(#461,#467,#473,#479));
#481=FACE_OUTER_BOUND('',#480,.T.);
#482=ADVANCED_FACE('',(#481),#455,.F.);
#483=CARTESIAN_POINT('',(0.007750000000000001,0.003,0.005206755134273901));
#484=DIRECTION('',(0.,0.,-1.));
#485=DIRECTION('',(-1.,0.,0.));
#486=AXIS2_PLACEMENT_3D('',#483,#484,#485);
#487=PLANE('',#486);
#488=CARTESIAN_POINT('',(0.007750000000000001,0.,0.005206755134273901));
#489=DIRECTION('',(-1.,0.,0.));
#490=VECTOR('',#489,1.);
#491=LINE('',#488,#490);
#492=EDGE_CURVE('',#184,#192,#491,.T.);
#493=ORIENTED_EDGE('',*,*,#492,.F.);
#494=CARTESIAN_POINT('',(0.007750000000000001,0.,0.005206755134273901));
#495=DIRECTION('',(0.,1.,0.));
#496=VECTOR('',#495,1.);
#497=LINE('',#494,#496);
#498=EDGE_CURVE('',#184,#29,#497,.T.);
#499=ORIENTED_EDGE('',*,*,#498,.T.);
#500=CARTESIAN_POINT('',(0.007750000000000001,0.003,0.005206755134273901));
#501=DIRECTION('',(-1.,0.,0.));
#502=VECTOR('',#501,1.);
#503=LINE('',#500,#502);
#504=EDGE_CURVE('',#29,#77,#503,.T.);
#505=ORIENTED_EDGE('',*,*,#504,.T.);
#506=CARTESIAN_POINT('',(0.004750000000000001,0.,0.005206755134273901));
#507=DIRECTION('',(0.,1.,0.));
#508=VECTOR('',#507,1.);
#509=LINE('',#506,#508);
#510=EDGE_CURVE('',#192,#77,#509,.T.);
#511=ORIENTED_EDGE('',*,*,#510,.F.);
#512=EDGE_LOOP('',(#493,#499,#505,#511));
#513=FACE_OUTER_BOUND('',#512,.T.);
#514=ADVANCED_FACE('',(#513),#487,.F.);
#515=CARTESIAN_POINT('',(2.4492935982947063E-19,0.003,0.010706755134273901));
#516=DIRECTION('',(0.,-1.,0.));
#517=DIRECTION('',(0.,0.,-1.));
#518=AXIS2_PLACEMENT_3D('',#515,#516,#517);
#519=CYLINDRICAL_SURFACE('',#518,0.0015000000000000005);
#520=CARTESIAN_POINT('',(2.4492935982947063E-19,0.,0.010706755134273901));
#521=DIRECTION('',(0.,1.,0.));
#522=DIRECTION('',(0.,0.,1.));
#523=AXIS2_PLACEMENT_3D('',#520,#521,#522);
#524=CIRCLE('',#523,0.0015000000000000005);
#525=EDGE_CURVE('',#156,#146,#524,.T.);
#526=ORIENTED_EDGE('',*,*,#525,.T.);
#527=CARTESIAN_POINT('',(0.0015000000000000005,0.,0.010706755134273901));
#528=DIRECTION('',(0.,1.,0.));
#529=VECTOR('',#528,1.);
#530=LINE('',#527,#529);
#531=EDGE_CURVE('',#146,#95,#530,.T.);
#532=ORIENTED_EDGE('',*,*,#531,.T.);
#533=CARTESIAN_POINT('',(2.4492935982947063E-19,0.003,0.010706755134273901));
#534=DIRECTION('',(0.,1.,0.));
#535=DIRECTION('',(0.,0.,1.));
#536=AXIS2_PLACEMENT_3D('',#533,#534,#535);
#537=CIRCLE('',#536,0.0015000000000000005);
#538=EDGE_CURVE('',#93,#95,#537,.T.);
#539=ORIENTED_EDGE('',*,*,#538,.F.);
#540=CARTESIAN_POINT('',(-0.0015000000000000005,0.,0.010706755134273901));
#541=DIRECTION('',(0.,1.,0.));
#542=VECTOR('',#541,1.);
#543=LINE('',#540,#542);
#544=EDGE_CURVE('',#156,#93,#543,.T.);
#545=ORIENTED_EDGE('',*,*,#544,.F.);
#546=EDGE_LOOP('',(#526,#532,#539,#545));
#547=FACE_OUTER_BOUND('',#546,.T.);
#548=ADVANCED_FACE('',(#547),#519,.T.);
#549=CARTESIAN_POINT('',(-0.0015000000000000005,0.003,0.01126484573119688));
#550=DIRECTION('',(1.,0.,-4.906897952096912E-16));
#551=DIRECTION('',(-4.906897952096912E-16,0.,-1.));
#552=AXIS2_PLACEMENT_3D('',#549,#550,#551);
#553=PLANE('',#552);
#554=CARTESIAN_POINT('',(-0.0014999999999999998,0.,0.011706755134273902));
#555=DIRECTION('',(-6.505213034913021E-16,0.,-1.));
#556=VECTOR('',#555,1.);
#557=LINE('',#554,#556);
#558=EDGE_CURVE('',#165,#156,#557,.T.);
#559=ORIENTED_EDGE('',*,*,#558,.T.);
#560=CARTESIAN_POINT('',(-0.0015000000000000005,0.,0.010706755134273901));
#561=DIRECTION('',(0.,1.,0.));
#562=VECTOR('',#561,1.);
#563=LINE('',#560,#562);
#564=EDGE_CURVE('',#156,#93,#563,.T.);
#565=ORIENTED_EDGE('',*,*,#564,.T.);
#566=CARTESIAN_POINT('',(-0.0014999999999999998,0.003,0.011706755134273902));
#567=DIRECTION('',(-6.505213034913021E-16,0.,-1.));
#568=VECTOR('',#567,1.);
#569=LINE('',#566,#568);
#570=EDGE_CURVE('',#112,#93,#569,.T.);
#571=ORIENTED_EDGE('',*,*,#570,.F.);
#572=CARTESIAN_POINT('',(-0.0014999999999999998,0.,0.011706755134273902));
#573=DIRECTION('',(0.,1.,0.));
#574=VECTOR('',#573,1.);
#575=LINE('',#572,#574);
#576=EDGE_CURVE('',#165,#112,#575,.T.);
#577=ORIENTED_EDGE('',*,*,#576,.F.);
#578=EDGE_LOOP('',(#559,#565,#571,#577));
#579=FACE_OUTER_BOUND('',#578,.T.);
#580=ADVANCED_FACE('',(#579),#553,.T.);
#581=CARTESIAN_POINT('',(3.6739403974420606E-19,0.003,0.011706755134273902));
#582=DIRECTION('',(0.,-1.,0.));
#583=DIRECTION('',(0.,0.,-1.));
#584=AXIS2_PLACEMENT_3D('',#581,#582,#583);
#585=CYLINDRICAL_SURFACE('',#584,0.0015000000000000002);
#586=CARTESIAN_POINT('',(3.6739403974420606E-19,0.,0.011706755134273902));
#587=DIRECTION('',(0.,1.,0.));
#588=DIRECTION('',(0.,0.,1.));
#589=AXIS2_PLACEMENT_3D('',#586,#587,#588);
#590=CIRCLE('',#589,0.0015000000000000002);
#591=EDGE_CURVE('',#148,#165,#590,.T.);
#592=ORIENTED_EDGE('',*,*,#591,.T.);
#593=CARTESIAN_POINT('',(-0.0014999999999999998,0.,0.011706755134273902));
#594=DIRECTION('',(0.,1.,0.));
#595=VECTOR('',#594,1.);
#596=LINE('',#593,#595);
#597=EDGE_CURVE('',#165,#112,#596,.T.);
#598=ORIENTED_EDGE('',*,*,#597,.T.);
#599=CARTESIAN_POINT('',(3.6739403974420606E-19,0.003,0.011706755134273902));
#600=DIRECTION('',(0.,1.,0.));
#601=DIRECTION('',(0.,0.,1.));
#602=AXIS2_PLACEMENT_3D('',#599,#600,#601);
#603=CIRCLE('',#602,0.0015000000000000002);
#604=EDGE_CURVE('',#104,#112,#603,.T.);
#605=ORIENTED_EDGE('',*,*,#604,.F.);
#606=CARTESIAN_POINT('',(0.0015000000000000002,0.,0.011706755134273902));
#607=DIRECTION('',(7.228014483236696E-17,1.,0.));
#608=VECTOR('',#607,1.);
#609=LINE('',#606,#608);
#610=EDGE_CURVE('',#148,#104,#609,.T.);
#611=ORIENTED_EDGE('',*,*,#610,.F.);
#612=EDGE_LOOP('',(#592,#598,#605,#611));
#613=FACE_OUTER_BOUND('',#612,.T.);
#614=ADVANCED_FACE('',(#613),#585,.T.);
#615=CARTESIAN_POINT('',(0.0015000000000000005,0.003,0.011264845731196878));
#616=DIRECTION('',(-1.,0.,0.));
#617=DIRECTION('',(0.,0.,1.));
#618=AXIS2_PLACEMENT_3D('',#615,#616,#617);
#619=PLANE('',#618);
#620=CARTESIAN_POINT('',(0.0015000000000000005,0.,0.010706755134273901));
#621=DIRECTION('',(-2.168404344971007E-16,0.,1.));
#622=VECTOR('',#621,1.);
#623=LINE('',#620,#622);
#624=EDGE_CURVE('',#146,#148,#623,.T.);
#625=ORIENTED_EDGE('',*,*,#624,.T.);
#626=CARTESIAN_POINT('',(0.0015000000000000002,0.,0.011706755134273902));
#627=DIRECTION('',(7.228014483236696E-17,1.,0.));
#628=VECTOR('',#627,1.);
#629=LINE('',#626,#628);
#630=EDGE_CURVE('',#148,#104,#629,.T.);
#631=ORIENTED_EDGE('',*,*,#630,.T.);
#632=CARTESIAN_POINT('',(0.0015000000000000005,0.003,0.010706755134273901));
#633=DIRECTION('',(0.,0.,1.));
#634=VECTOR('',#633,1.);
#635=LINE('',#632,#634);
#636=EDGE_CURVE('',#95,#104,#635,.T.);
#637=ORIENTED_EDGE('',*,*,#636,.F.);
#638=CARTESIAN_POINT('',(0.0015000000000000005,0.,0.010706755134273901));
#639=DIRECTION('',(0.,1.,0.));
#640=VECTOR('',#639,1.);
#641=LINE('',#638,#640);
#642=EDGE_CURVE('',#146,#95,#641,.T.);
#643=ORIENTED_EDGE('',*,*,#642,.F.);
#644=EDGE_LOOP('',(#625,#631,#637,#643));
#645=FACE_OUTER_BOUND('',#644,.T.);
#646=ADVANCED_FACE('',(#645),#619,.T.);
#647=CARTESIAN_POINT('',(0.,0.003,0.02920675513427391));
#648=DIRECTION('',(0.,-1.,0.));
#649=DIRECTION('',(0.,0.,-1.));
#650=AXIS2_PLACEMENT_3D('',#647,#648,#649);
#651=CYLINDRICAL_SURFACE('',#650,0.0015000000000000005);
#652=CARTESIAN_POINT('',(0.,0.003,0.02920675513427391));
#653=DIRECTION('',(0.,1.,0.));
#654=DIRECTION('',(0.,0.,1.));
#655=AXIS2_PLACEMENT_3D('',#652,#653,#654);
#656=CIRCLE('',#655,0.0015000000000000005);
#657=EDGE_CURVE('',#129,#129,#656,.T.);
#658=ORIENTED_EDGE('',*,*,#657,.F.);
#659=EDGE_LOOP('',(#658));
#660=FACE_OUTER_BOUND('',#659,.T.);
#661=CARTESIAN_POINT('',(0.,0.,0.02920675513427391));
#662=DIRECTION('',(0.,1.,0.));
#663=DIRECTION('',(0.,0.,1.));
#664=AXIS2_PLACEMENT_3D('',#661,#662,#663);
#665=CIRCLE('',#664,0.0015000000000000005);
#666=EDGE_CURVE('',#248,#248,#665,.T.);
#667=ORIENTED_EDGE('',*,*,#666,.T.);
#668=EDGE_LOOP('',(#667));
#669=FACE_BOUND('',#668,.F.);
#670=ADVANCED_FACE('',(#660,#669),#651,.T.);
#671=CLOSED_SHELL('',(#139,#258,#290,#322,#354,#386,#418,#450,#482,#514,#548,#580,#614,#646,#670));
#672=MANIFOLD_SOLID_BREP('',#671);
#673=CARTESIAN_POINT('',(0.,0.,0.));
#674=DIRECTION('',(0.,0.,1.));
#675=DIRECTION('',(1.,0.,0.));
#676=AXIS2_PLACEMENT_3D('',#673,#674,#675);
#677=(LENGTH_UNIT() NAMED_UNIT(*) SI_UNIT($,.METRE.));
#678=(NAMED_UNIT(*) PLANE_ANGLE_UNIT() SI_UNIT($,.RADIAN.));
#679=(NAMED_UNIT(*) SI_UNIT($,.STERADIAN.) SOLID_ANGLE_UNIT());
#680=UNCERTAINTY_MEASURE_WITH_UNIT(LENGTH_MEASURE(1.E-07),#677,'distance_accuracy_value','confusion accuracy');
#681=(GEOMETRIC_REPRESENTATION_CONTEXT(3) GLOBAL_UNCERTAINTY_ASSIGNED_CONTEXT((#680)) GLOBAL_UNIT_ASSIGNED_CONTEXT((#677,#678,#679)) REPRESENTATION_CONTEXT('','3D'));
#682=ADVANCED_BREP_SHAPE_REPRESENTATION('',(#676,#672),#681);
#683=COLOUR_RGB('',0.792156862745098,0.8196078431372549,0.9333333333333333);
#684=FILL_AREA_STYLE_COLOUR('',#683);
#685=FILL_AREA_STYLE('',(#684));
#686=SURFACE_STYLE_FILL_AREA(#685);
#687=SURFACE_SIDE_STYLE('',(#686));
#688=SURFACE_STYLE_USAGE(.BOTH.,#687);
#689=PRESENTATION_STYLE_ASSIGNMENT((#688));
#690=STYLED_ITEM('',(#689),#672);
#691=MECHANICAL_DESIGN_GEOMETRIC_PRESENTATION_REPRESENTATION('',(#690),#681);
ENDSEC;
END-ISO-10303-21;